<svg xmlns="http://www.w3.org/2000/svg" xmlns:xlink="http://www.w3.org/1999/xlink" width="800" zoomAndPan="magnify" viewBox="0 0 600 599.999999" height="800" preserveAspectRatio="xMidYMid meet" version="1.0"><defs><filter x="0%" y="0%" width="100%" height="100%" id="f73fce8bc3"><feColorMatrix values="0 0 0 0 1 0 0 0 0 1 0 0 0 0 1 0 0 0 1 0" color-interpolation-filters="sRGB"/></filter><g/><clipPath id="e037f422c7"><path d="M 124 277 L 471 277 L 471 589 L 124 589 Z M 124 277 " clip-rule="nonzero"/></clipPath><clipPath id="909d17195a"><path d="M 60.226562 362.945312 L 364.675781 210.03125 L 511.652344 502.65625 L 207.203125 655.570312 Z M 60.226562 362.945312 " clip-rule="nonzero"/></clipPath><clipPath id="d431ef5cb3"><path d="M 460.683594 403.636719 C 473.082031 443.0625 470.699219 488.675781 470.699219 488.675781 C 468.316406 534.289062 421.988281 546.457031 421.988281 546.457031 C 375.664062 558.621094 343.890625 575.195312 343.890625 575.195312 C 312.117188 591.773438 275.128906 588.140625 275.128906 588.140625 C 238.140625 584.511719 196.207031 573.492188 196.207031 573.492188 C 154.277344 562.472656 140.640625 520.585938 140.640625 520.585938 C 127.003906 478.699219 124.214844 436.300781 124.214844 436.300781 C 121.425781 393.898438 149.472656 362.539062 149.472656 362.539062 C 177.523438 331.175781 205.320312 296.855469 205.320312 296.855469 C 233.117188 262.535156 274.328125 283.171875 274.328125 283.171875 C 315.535156 303.804688 346.621094 315.335938 346.621094 315.335938 C 377.707031 326.867188 412.996094 345.539062 412.996094 345.539062 C 448.285156 364.214844 460.683594 403.636719 460.683594 403.636719 Z M 460.683594 403.636719 " clip-rule="nonzero"/></clipPath><clipPath id="0a0da25f0e"><path d="M 0 0 L 347 0 L 347 312 L 0 312 Z M 0 0 " clip-rule="nonzero"/></clipPath><clipPath id="5ea7d03a14"><path d="M -63.773438 85.945312 L 240.675781 -66.96875 L 387.652344 225.65625 L 83.203125 378.570312 Z M -63.773438 85.945312 " clip-rule="nonzero"/></clipPath><clipPath id="a24a2bd717"><path d="M 336.683594 126.636719 C 349.082031 166.0625 346.699219 211.675781 346.699219 211.675781 C 344.316406 257.289062 297.988281 269.457031 297.988281 269.457031 C 251.664062 281.621094 219.890625 298.195312 219.890625 298.195312 C 188.117188 314.773438 151.128906 311.140625 151.128906 311.140625 C 114.140625 307.511719 72.207031 296.492188 72.207031 296.492188 C 30.277344 285.472656 16.640625 243.585938 16.640625 243.585938 C 3.003906 201.699219 0.214844 159.300781 0.214844 159.300781 C -2.574219 116.898438 25.472656 85.539062 25.472656 85.539062 C 53.523438 54.175781 81.320312 19.855469 81.320312 19.855469 C 109.117188 -14.464844 150.328125 6.171875 150.328125 6.171875 C 191.535156 26.804688 222.621094 38.335938 222.621094 38.335938 C 253.707031 49.867188 288.996094 68.539062 288.996094 68.539062 C 324.285156 87.214844 336.683594 126.636719 336.683594 126.636719 Z M 336.683594 126.636719 " clip-rule="nonzero"/></clipPath><clipPath id="9edfeaacc4"><rect x="0" width="347" y="0" height="312"/></clipPath><clipPath id="baed33a944"><rect x="0" width="236" y="0" height="79"/></clipPath><clipPath id="d89467cac2"><path d="M 4 1 L 535 1 L 535 415.605469 L 4 415.605469 Z M 4 1 " clip-rule="nonzero"/></clipPath><clipPath id="1c0783dcc3"><path d="M 64 61 L 518 61 L 518 415.605469 L 64 415.605469 Z M 64 61 " clip-rule="nonzero"/></clipPath><mask id="78ab905aab"><g filter="url(#f73fce8bc3)"><rect x="-164" width="864" fill="#000000" y="-133" height="863.999999" fill-opacity="0.2"/></g></mask><clipPath id="a69730f982"><rect x="0" width="448" y="0" height="161"/></clipPath><clipPath id="cbe8483f8c"><rect x="0" width="568" y="0" height="599"/></clipPath></defs><g transform="matrix(1, 0, 0, 1, 32, 1)"><g clip-path="url(#cbe8483f8c)"><g clip-path="url(#e037f422c7)"><g clip-path="url(#909d17195a)"><g clip-path="url(#d431ef5cb3)"><g transform="matrix(1, 0, 0, 1, 124, 277)"><g clip-path="url(#9edfeaacc4)"><g clip-path="url(#0a0da25f0e)"><g clip-path="url(#5ea7d03a14)"><g clip-path="url(#a24a2bd717)"><path fill="#b1c6d7" d="M -123.472656 65.347656 L 270.632812 -132.601562 L 468.582031 261.503906 L 74.476562 459.453125 Z M -123.472656 65.347656 " fill-opacity="1" fill-rule="nonzero"/></g></g></g></g></g></g></g></g><g transform="matrix(1, 0, 0, 1, 179, 418)"><g clip-path="url(#baed33a944)"><g fill="#5a5151" fill-opacity="1"><g transform="translate(0.47473, 59.950537)"><g><path d="M 30.859375 -56.640625 C 34.949219 -56.640625 38.789062 -55.875 42.378906 -54.339844 C 46.058594 -52.765625 49.082031 -50.457031 51.457031 -47.40625 L 53.179688 -45.1875 L 42.851562 -37.316406 L 41.15625 -39.433594 C 38.496094 -42.742188 34.992188 -44.398438 30.636719 -44.398438 C 25.773438 -44.398438 21.773438 -42.675781 18.640625 -39.226562 C 15.4375 -35.703125 13.835938 -31.234375 13.835938 -25.816406 C 13.835938 -20.617188 15.402344 -16.359375 18.53125 -13.035156 C 21.617188 -9.761719 25.652344 -8.125 30.636719 -8.125 C 33.082031 -8.125 35.25 -8.609375 37.136719 -9.578125 C 39.027344 -10.546875 40.679688 -12.023438 42.101562 -14.007812 L 43.757812 -16.324219 L 54.261719 -8.414062 L 52.597656 -6.195312 C 50.25 -3.066406 47.144531 -0.5625 43.277344 1.316406 C 39.433594 3.183594 35.171875 4.117188 30.488281 4.117188 C 24.933594 4.117188 19.882812 2.761719 15.339844 0.0507812 C 10.808594 -2.652344 7.230469 -6.359375 4.613281 -11.074219 C 2.007812 -15.773438 0.703125 -20.710938 0.703125 -25.890625 C 0.703125 -34.75 3.511719 -42.085938 9.128906 -47.890625 C 14.769531 -53.722656 22.011719 -56.640625 30.859375 -56.640625 Z M 30.859375 -51.078125 C 23.585938 -51.078125 17.675781 -48.726562 13.128906 -44.023438 C 8.554688 -39.296875 6.269531 -33.25 6.269531 -25.890625 C 6.269531 -21.671875 7.339844 -17.632812 9.480469 -13.777344 C 11.613281 -9.933594 14.515625 -6.917969 18.191406 -4.726562 C 21.855469 -2.539062 25.957031 -1.445312 30.488281 -1.445312 C 34.316406 -1.445312 37.769531 -2.195312 40.847656 -3.691406 C 43.90625 -5.175781 46.339844 -7.121094 48.144531 -9.53125 L 50.371094 -7.863281 L 48.699219 -5.640625 L 42.6875 -10.167969 L 44.363281 -12.390625 L 46.625 -10.769531 C 44.683594 -8.054688 42.367188 -6.007812 39.679688 -4.628906 C 36.992188 -3.25 33.980469 -2.558594 30.636719 -2.558594 C 24.050781 -2.558594 18.664062 -4.78125 14.480469 -9.21875 C 10.339844 -13.613281 8.273438 -19.144531 8.273438 -25.816406 C 8.273438 -32.664062 10.355469 -38.382812 14.519531 -42.96875 C 18.757812 -47.632812 24.128906 -49.964844 30.636719 -49.964844 C 36.769531 -49.964844 41.722656 -47.613281 45.492188 -42.914062 L 43.324219 -41.171875 L 41.636719 -43.386719 L 47.570312 -47.910156 L 49.257812 -45.699219 L 47.0625 -43.988281 C 45.28125 -46.28125 42.988281 -48.027344 40.191406 -49.222656 C 37.300781 -50.457031 34.191406 -51.078125 30.859375 -51.078125 Z M 30.859375 -51.078125 "/></g></g></g><g fill="#5a5151" fill-opacity="1"><g transform="translate(52.699694, 59.950537)"><g><path d="M 2.78125 -58.867188 L 15.023438 -58.867188 L 15.023438 2.78125 L 2.78125 2.78125 Z M 8.347656 -53.300781 L 8.347656 -2.78125 L 9.457031 -2.78125 L 9.457031 -53.300781 Z M 8.347656 -53.300781 "/></g></g></g><g fill="#5a5151" fill-opacity="1"><g transform="translate(70.503657, 59.950537)"><g><path d="M 22.03125 -38.835938 C 27.992188 -38.835938 33.046875 -36.773438 37.199219 -32.648438 C 41.347656 -28.527344 43.453125 -23.515625 43.507812 -17.609375 C 43.511719 -11.613281 41.425781 -6.589844 37.253906 -2.53125 C 33.117188 1.492188 28.0625 3.558594 22.085938 3.671875 C 16.144531 3.671875 11.101562 1.625 6.949219 -2.46875 C 2.800781 -6.5625 0.671875 -11.582031 0.558594 -17.527344 C 0.554688 -23.429688 2.621094 -28.433594 6.757812 -32.539062 C 10.871094 -36.625 15.945312 -38.722656 21.980469 -38.835938 Z M 22.085938 -33.273438 C 17.539062 -33.1875 13.734375 -31.625 10.675781 -28.589844 C 7.640625 -25.574219 6.121094 -21.921875 6.121094 -17.636719 C 6.203125 -13.195312 7.78125 -9.460938 10.855469 -6.433594 C 13.925781 -3.40625 17.632812 -1.890625 21.980469 -1.890625 C 26.488281 -1.976562 30.289062 -3.519531 33.371094 -6.519531 C 36.421875 -9.484375 37.945312 -13.164062 37.945312 -17.554688 C 37.902344 -21.9375 36.347656 -25.652344 33.277344 -28.703125 C 30.210938 -31.75 26.460938 -33.273438 22.03125 -33.273438 Z M 13.242188 -17.582031 C 13.242188 -14.710938 14.050781 -12.414062 15.671875 -10.703125 C 17.261719 -9.019531 19.394531 -8.160156 22.074219 -8.125 C 24.746094 -8.125 26.84375 -8.949219 28.371094 -10.605469 C 29.964844 -12.332031 30.785156 -14.671875 30.824219 -17.621094 C 30.824219 -20.480469 30.03125 -22.769531 28.445312 -24.484375 C 26.910156 -26.152344 24.734375 -27.003906 21.921875 -27.039062 C 19.265625 -27.039062 17.175781 -26.1875 15.652344 -24.480469 C 14.046875 -22.683594 13.242188 -20.386719 13.242188 -17.582031 Z M 7.679688 -17.582031 C 7.679688 -21.800781 8.953125 -25.335938 11.5 -28.191406 C 14.132812 -31.132812 17.628906 -32.605469 21.996094 -32.605469 C 26.402344 -32.542969 29.917969 -31.097656 32.535156 -28.261719 C 35.105469 -25.476562 36.386719 -21.90625 36.386719 -17.542969 C 36.328125 -13.175781 35.019531 -9.601562 32.460938 -6.828125 C 29.832031 -3.984375 26.34375 -2.558594 21.992188 -2.558594 C 17.746094 -2.621094 14.292969 -4.058594 11.628906 -6.878906 C 8.996094 -9.667969 7.679688 -13.234375 7.679688 -17.582031 Z M 7.679688 -17.582031 "/></g></g></g><g fill="#5a5151" fill-opacity="1"><g transform="translate(114.568472, 59.950537)"><g><path d="M 14.503906 -35.164062 L 14.503906 -14.09375 C 14.503906 -12.066406 14.976562 -10.554688 15.925781 -9.558594 C 16.835938 -8.601562 18.105469 -8.125 19.734375 -8.125 C 21.980469 -8.125 23.675781 -8.816406 24.828125 -10.199219 C 26.105469 -11.734375 26.742188 -13.925781 26.742188 -16.765625 L 26.742188 -37.945312 L 38.984375 -37.945312 L 38.984375 2.78125 L 26.742188 2.78125 L 26.742188 -5.414062 L 29.527344 -5.414062 L 29.527344 -2.632812 L 29.378906 -2.632812 L 29.378906 -5.414062 L 31.890625 -4.222656 C 30.683594 -1.683594 28.742188 0.285156 26.066406 1.6875 C 23.539062 3.011719 20.78125 3.671875 17.804688 3.671875 C 13.101562 3.671875 9.324219 2.171875 6.476562 -0.828125 C 3.667969 -3.789062 2.261719 -7.59375 2.261719 -12.242188 L 2.261719 -37.945312 L 14.503906 -37.945312 Z M 8.9375 -35.164062 L 11.722656 -35.164062 L 11.722656 -32.382812 L 5.042969 -32.382812 L 5.042969 -35.164062 L 7.828125 -35.164062 L 7.828125 -12.242188 C 7.828125 -9.074219 8.722656 -6.546875 10.511719 -4.660156 C 12.261719 -2.816406 14.695312 -1.890625 17.804688 -1.890625 C 19.871094 -1.890625 21.765625 -2.34375 23.488281 -3.242188 C 25.066406 -4.070312 26.191406 -5.191406 26.863281 -6.609375 L 27.617188 -8.199219 L 32.308594 -8.199219 L 32.308594 0 L 29.527344 0 L 29.527344 -2.78125 L 36.203125 -2.78125 L 36.203125 0 L 33.421875 0 L 33.421875 -35.164062 L 36.203125 -35.164062 L 36.203125 -32.382812 L 29.527344 -32.382812 L 29.527344 -35.164062 L 32.308594 -35.164062 L 32.308594 -16.765625 C 32.308594 -12.585938 31.242188 -9.210938 29.105469 -6.640625 C 26.84375 -3.921875 23.71875 -2.558594 19.734375 -2.558594 C 16.515625 -2.558594 13.902344 -3.613281 11.894531 -5.722656 C 9.925781 -7.792969 8.9375 -10.585938 8.9375 -14.09375 Z M 8.9375 -35.164062 "/></g></g></g><g fill="#5a5151" fill-opacity="1"><g transform="translate(155.814315, 59.950537)"><g><path d="M 43.066406 -56.085938 L 43.066406 2.78125 L 30.824219 2.78125 L 30.824219 -5.042969 L 33.605469 -5.042969 L 33.605469 -2.261719 L 33.457031 -2.261719 L 33.457031 -5.042969 L 35.753906 -3.472656 C 34.183594 -1.179688 32.070312 0.59375 29.414062 1.847656 C 26.839844 3.0625 24.105469 3.671875 21.21875 3.671875 C 15.121094 3.617188 10.160156 1.570312 6.328125 -2.460938 C 2.535156 -6.453125 0.613281 -11.484375 0.554688 -17.554688 C 0.554688 -23.710938 2.460938 -28.765625 6.269531 -32.71875 C 10.089844 -36.683594 15.054688 -38.722656 21.164062 -38.835938 C 24.035156 -38.835938 26.769531 -38.230469 29.367188 -37.015625 C 32.050781 -35.765625 34.179688 -33.988281 35.753906 -31.691406 L 33.457031 -30.121094 L 33.457031 -32.902344 L 33.605469 -32.902344 L 33.605469 -30.121094 L 30.824219 -30.121094 L 30.824219 -58.867188 L 43.066406 -58.867188 Z M 37.5 -56.085938 L 40.28125 -56.085938 L 40.28125 -53.300781 L 33.605469 -53.300781 L 33.605469 -56.085938 L 36.386719 -56.085938 L 36.386719 -27.335938 L 31.988281 -27.335938 L 31.160156 -28.546875 C 30.164062 -30.007812 28.78125 -31.152344 27.015625 -31.976562 C 25.160156 -32.839844 23.246094 -33.273438 21.269531 -33.273438 C 16.695312 -33.1875 13.03125 -31.714844 10.273438 -28.855469 C 7.503906 -25.984375 6.121094 -22.234375 6.121094 -17.609375 C 6.164062 -12.996094 7.578125 -9.226562 10.363281 -6.292969 C 13.109375 -3.402344 16.726562 -1.933594 21.21875 -1.890625 C 23.273438 -1.890625 25.214844 -2.324219 27.039062 -3.183594 C 28.785156 -4.007812 30.160156 -5.152344 31.160156 -6.617188 L 31.988281 -7.828125 L 36.386719 -7.828125 L 36.386719 0 L 33.605469 0 L 33.605469 -2.78125 L 40.28125 -2.78125 L 40.28125 0 L 37.5 0 Z M 13.242188 -17.582031 C 13.242188 -14.710938 14.050781 -12.414062 15.671875 -10.703125 C 17.261719 -9.019531 19.394531 -8.160156 22.074219 -8.125 C 24.753906 -8.125 26.867188 -8.953125 28.421875 -10.617188 C 30.023438 -12.332031 30.824219 -14.652344 30.824219 -17.582031 C 30.824219 -20.46875 30.03125 -22.769531 28.445312 -24.484375 C 26.910156 -26.152344 24.734375 -27.003906 21.921875 -27.039062 C 19.296875 -27.039062 17.207031 -26.199219 15.65625 -24.523438 C 14.046875 -22.78125 13.242188 -20.464844 13.242188 -17.582031 Z M 7.679688 -17.582031 C 7.679688 -21.917969 8.976562 -25.488281 11.570312 -28.296875 C 14.222656 -31.167969 17.699219 -32.605469 21.996094 -32.605469 C 26.402344 -32.542969 29.917969 -31.097656 32.535156 -28.261719 C 35.105469 -25.476562 36.386719 -21.917969 36.386719 -17.582031 C 36.386719 -13.191406 35.085938 -9.601562 32.484375 -6.816406 C 29.835938 -3.980469 26.335938 -2.558594 21.992188 -2.558594 C 17.746094 -2.621094 14.292969 -4.058594 11.628906 -6.878906 C 8.996094 -9.667969 7.679688 -13.234375 7.679688 -17.582031 Z M 7.679688 -17.582031 "/></g></g></g><g fill="#5a5151" fill-opacity="1"><g transform="translate(201.14026, 59.950537)"><g><path d="M 16.914062 -38.835938 C 20 -38.835938 22.78125 -38.253906 25.257812 -37.085938 C 27.867188 -35.859375 29.886719 -34.066406 31.3125 -31.707031 L 32.609375 -29.5625 L 23.324219 -22.53125 L 21.621094 -24.53125 C 20.199219 -26.203125 18.503906 -27.039062 16.542969 -27.039062 C 15.421875 -27.039062 14.539062 -26.824219 13.894531 -26.394531 C 13.609375 -26.203125 13.464844 -26.035156 13.464844 -25.890625 C 13.464844 -25.597656 13.660156 -25.304688 14.050781 -25.019531 C 14.863281 -24.425781 16.21875 -23.945312 18.109375 -23.578125 C 23.101562 -22.644531 26.714844 -21.195312 28.953125 -19.226562 C 31.4375 -17.039062 32.679688 -14.019531 32.679688 -10.164062 C 32.679688 -5.824219 31.011719 -2.402344 27.675781 0.109375 C 24.59375 2.429688 20.570312 3.617188 15.609375 3.671875 C 11.902344 3.671875 8.804688 3.074219 6.320312 1.875 C 3.796875 0.65625 1.628906 -1.207031 -0.179688 -3.714844 L -1.707031 -5.832031 L 7.339844 -13.277344 L 9.125 -11.425781 C 11.25 -9.222656 13.425781 -8.125 15.652344 -8.125 C 17.140625 -8.125 18.359375 -8.398438 19.316406 -8.945312 C 19.613281 -9.113281 19.808594 -9.273438 19.910156 -9.429688 C 19.964844 -9.519531 19.992188 -9.640625 19.992188 -9.792969 C 19.992188 -10.082031 19.804688 -10.367188 19.429688 -10.652344 C 18.644531 -11.242188 17.34375 -11.730469 15.523438 -12.113281 C 10.0625 -13.207031 6.28125 -14.773438 4.183594 -16.808594 C 1.914062 -19.011719 0.777344 -21.816406 0.777344 -25.222656 C 0.777344 -29.398438 2.398438 -32.738281 5.640625 -35.25 C 8.652344 -37.582031 12.398438 -38.777344 16.878906 -38.835938 Z M 16.949219 -33.273438 C 13.714844 -33.230469 11.078125 -32.421875 9.046875 -30.851562 C 7.246094 -29.453125 6.34375 -27.578125 6.34375 -25.222656 C 6.34375 -23.386719 6.914062 -21.914062 8.058594 -20.800781 C 9.371094 -19.527344 12.242188 -18.445312 16.671875 -17.558594 C 19.304688 -17.003906 21.339844 -16.179688 22.78125 -15.089844 C 24.632812 -13.695312 25.558594 -11.925781 25.558594 -9.792969 C 25.558594 -8.558594 25.238281 -7.445312 24.601562 -6.445312 C 24.011719 -5.511719 23.167969 -4.734375 22.078125 -4.113281 C 20.265625 -3.078125 18.125 -2.558594 15.652344 -2.558594 C 11.847656 -2.558594 8.335938 -4.226562 5.117188 -7.566406 L 7.121094 -9.496094 L 8.890625 -7.347656 L 3.847656 -3.195312 L 2.078125 -5.339844 L 4.332031 -6.96875 C 5.59375 -5.222656 7.058594 -3.945312 8.738281 -3.136719 C 10.457031 -2.308594 12.726562 -1.890625 15.546875 -1.890625 C 19.292969 -1.933594 22.21875 -2.75 24.328125 -4.335938 C 26.1875 -5.734375 27.113281 -7.675781 27.113281 -10.164062 C 27.113281 -12.34375 26.503906 -13.96875 25.277344 -15.046875 C 23.804688 -16.34375 21.0625 -17.367188 17.054688 -18.113281 C 14.347656 -18.636719 12.25 -19.445312 10.765625 -20.527344 C 8.855469 -21.925781 7.902344 -23.710938 7.902344 -25.890625 C 7.902344 -26.96875 8.167969 -27.960938 8.707031 -28.867188 C 9.199219 -29.699219 9.902344 -30.417969 10.808594 -31.023438 C 12.386719 -32.078125 14.300781 -32.605469 16.542969 -32.605469 C 20.21875 -32.605469 23.324219 -31.117188 25.859375 -28.140625 L 23.738281 -26.335938 L 22.058594 -28.554688 L 27.253906 -32.484375 L 28.933594 -30.269531 L 26.550781 -28.828125 C 25.703125 -30.226562 24.484375 -31.300781 22.886719 -32.054688 C 21.160156 -32.867188 19.171875 -33.273438 16.914062 -33.273438 Z M 16.949219 -33.273438 "/></g></g></g><g fill="#e0e1e2" fill-opacity="1"><g transform="translate(0.47473, 59.950537)"><g><path d="M 30.859375 -53.859375 C 34.566406 -53.859375 38.039062 -53.164062 41.28125 -51.78125 C 44.519531 -50.394531 47.179688 -48.367188 49.265625 -45.703125 L 43.328125 -41.171875 C 40.109375 -45.179688 35.878906 -47.1875 30.640625 -47.1875 C 24.953125 -47.1875 20.265625 -45.15625 16.578125 -41.09375 C 12.890625 -37.039062 11.046875 -31.945312 11.046875 -25.8125 C 11.046875 -19.882812 12.863281 -14.988281 16.5 -11.125 C 20.132812 -7.269531 24.847656 -5.34375 30.640625 -5.34375 C 36.421875 -5.34375 40.992188 -7.691406 44.359375 -12.390625 L 50.375 -7.859375 C 48.289062 -5.085938 45.519531 -2.863281 42.0625 -1.1875 C 38.601562 0.488281 34.742188 1.328125 30.484375 1.328125 C 25.441406 1.328125 20.867188 0.101562 16.765625 -2.34375 C 12.660156 -4.789062 9.421875 -8.148438 7.046875 -12.421875 C 4.671875 -16.703125 3.484375 -21.191406 3.484375 -25.890625 C 3.484375 -34.003906 6.03125 -40.691406 11.125 -45.953125 C 16.21875 -51.222656 22.796875 -53.859375 30.859375 -53.859375 Z M 30.859375 -53.859375 "/></g></g></g><g fill="#e0e1e2" fill-opacity="1"><g transform="translate(52.699694, 59.950537)"><g><path d="M 12.234375 -56.078125 L 12.234375 0 L 5.5625 0 L 5.5625 -56.078125 Z M 12.234375 -56.078125 "/></g></g></g><g fill="#e0e1e2" fill-opacity="1"><g transform="translate(70.503657, 59.950537)"><g><path d="M 22.03125 -36.0625 C 27.226562 -36.0625 31.628906 -34.265625 35.234375 -30.671875 C 38.847656 -27.085938 40.679688 -22.722656 40.734375 -17.578125 C 40.734375 -12.390625 38.925781 -8.039062 35.3125 -4.53125 C 31.695312 -1.019531 27.269531 0.785156 22.03125 0.890625 C 16.882812 0.890625 12.503906 -0.890625 8.890625 -4.453125 C 5.285156 -8.015625 3.4375 -12.390625 3.34375 -17.578125 C 3.34375 -22.671875 5.132812 -27 8.71875 -30.5625 C 12.300781 -34.125 16.738281 -35.957031 22.03125 -36.0625 Z M 10.453125 -17.578125 C 10.453125 -13.972656 11.515625 -11.046875 13.640625 -8.796875 C 15.773438 -6.546875 18.570312 -5.394531 22.03125 -5.34375 C 25.539062 -5.34375 28.332031 -6.46875 30.40625 -8.71875 C 32.488281 -10.96875 33.554688 -13.921875 33.609375 -17.578125 C 33.609375 -21.191406 32.566406 -24.125 30.484375 -26.375 C 28.410156 -28.625 25.566406 -29.773438 21.953125 -29.828125 C 18.441406 -29.828125 15.644531 -28.660156 13.5625 -26.328125 C 11.488281 -24.003906 10.453125 -21.085938 10.453125 -17.578125 Z M 10.453125 -17.578125 "/></g></g></g><g fill="#e0e1e2" fill-opacity="1"><g transform="translate(114.568472, 59.950537)"><g><path d="M 11.71875 -35.171875 L 11.71875 -14.09375 C 11.71875 -11.320312 12.445312 -9.171875 13.90625 -7.640625 C 15.363281 -6.109375 17.304688 -5.34375 19.734375 -5.34375 C 22.847656 -5.34375 25.257812 -6.367188 26.96875 -8.421875 C 28.675781 -10.472656 29.53125 -13.253906 29.53125 -16.765625 L 29.53125 -35.171875 L 36.203125 -35.171875 L 36.203125 0 L 29.53125 0 L 29.53125 -5.421875 L 29.375 -5.421875 C 28.4375 -3.441406 26.90625 -1.894531 24.78125 -0.78125 C 22.65625 0.332031 20.332031 0.890625 17.8125 0.890625 C 13.894531 0.890625 10.785156 -0.316406 8.484375 -2.734375 C 6.191406 -5.160156 5.046875 -8.328125 5.046875 -12.234375 L 5.046875 -35.171875 Z M 11.71875 -35.171875 "/></g></g></g><g fill="#e0e1e2" fill-opacity="1"><g transform="translate(155.814315, 59.950537)"><g><path d="M 40.28125 -56.078125 L 40.28125 0 L 33.609375 0 L 33.609375 -5.046875 L 33.453125 -5.046875 C 32.171875 -3.160156 30.425781 -1.695312 28.21875 -0.65625 C 26.019531 0.375 23.6875 0.890625 21.21875 0.890625 C 15.925781 0.835938 11.632812 -0.914062 8.34375 -4.375 C 5.050781 -7.832031 3.382812 -12.234375 3.34375 -17.578125 C 3.34375 -22.972656 4.984375 -27.375 8.265625 -30.78125 C 11.554688 -34.195312 15.875 -35.957031 21.21875 -36.0625 C 23.644531 -36.0625 25.96875 -35.539062 28.1875 -34.5 C 30.414062 -33.457031 32.171875 -32 33.453125 -30.125 L 33.609375 -30.125 L 33.609375 -56.078125 Z M 10.453125 -17.578125 C 10.453125 -13.972656 11.515625 -11.046875 13.640625 -8.796875 C 15.773438 -6.546875 18.570312 -5.394531 22.03125 -5.34375 C 25.539062 -5.34375 28.347656 -6.46875 30.453125 -8.71875 C 32.554688 -10.96875 33.609375 -13.921875 33.609375 -17.578125 C 33.609375 -21.191406 32.566406 -24.125 30.484375 -26.375 C 28.410156 -28.625 25.566406 -29.773438 21.953125 -29.828125 C 18.492188 -29.828125 15.710938 -28.6875 13.609375 -26.40625 C 11.503906 -24.132812 10.453125 -21.191406 10.453125 -17.578125 Z M 10.453125 -17.578125 "/></g></g></g><g fill="#e0e1e2" fill-opacity="1"><g transform="translate(201.14026, 59.950537)"><g><path d="M 16.921875 -36.0625 C 19.585938 -36.0625 21.972656 -35.566406 24.078125 -34.578125 C 26.179688 -33.585938 27.800781 -32.148438 28.9375 -30.265625 L 23.734375 -26.34375 C 21.753906 -28.664062 19.359375 -29.828125 16.546875 -29.828125 C 14.859375 -29.828125 13.457031 -29.453125 12.34375 -28.703125 C 11.238281 -27.960938 10.6875 -27.023438 10.6875 -25.890625 C 10.6875 -23.421875 12.984375 -21.738281 17.578125 -20.84375 C 22.078125 -20 25.253906 -18.757812 27.109375 -17.125 C 28.960938 -15.5 29.890625 -13.175781 29.890625 -10.15625 C 29.890625 -6.75 28.59375 -4.066406 26 -2.109375 C 23.40625 -0.160156 19.929688 0.835938 15.578125 0.890625 C 12.316406 0.890625 9.632812 0.382812 7.53125 -0.625 C 5.425781 -1.644531 3.609375 -3.21875 2.078125 -5.34375 L 7.125 -9.5 C 9.789062 -6.726562 12.632812 -5.34375 15.65625 -5.34375 C 17.632812 -5.34375 19.316406 -5.738281 20.703125 -6.53125 C 22.085938 -7.320312 22.78125 -8.410156 22.78125 -9.796875 C 22.78125 -12.210938 20.550781 -13.894531 16.09375 -14.84375 C 11.15625 -15.832031 7.832031 -17.15625 6.125 -18.8125 C 4.414062 -20.46875 3.5625 -22.601562 3.5625 -25.21875 C 3.5625 -28.488281 4.820312 -31.097656 7.34375 -33.046875 C 9.863281 -35.003906 13.054688 -36.007812 16.921875 -36.0625 Z M 16.921875 -36.0625 "/></g></g></g></g></g><g clip-path="url(#d89467cac2)"><path fill="#b1c6d7" d="M 64.039062 207.609375 C 64.863281 200.488281 65.015625 193.253906 64.496094 186.105469 C 64.441406 185.351562 65.007812 184.699219 65.761719 184.644531 C 66.503906 184.582031 67.167969 185.15625 67.222656 185.910156 C 67.753906 193.226562 67.597656 200.632812 66.757812 207.921875 C 66.675781 208.617188 66.082031 209.132812 65.402344 209.132812 C 65.347656 209.132812 65.292969 209.128906 65.242188 209.121094 C 64.492188 209.035156 63.953125 208.359375 64.039062 207.609375 Z M 74.878906 315.816406 L 74.878906 298.816406 C 74.878906 298.0625 74.269531 297.449219 73.515625 297.449219 C 72.757812 297.449219 72.148438 298.0625 72.148438 298.816406 L 72.148438 315.816406 C 72.148438 316.570312 72.757812 317.183594 73.515625 317.183594 C 74.269531 317.183594 74.878906 316.570312 74.878906 315.816406 Z M 90.589844 202.300781 C 91.292969 202.300781 91.890625 201.765625 91.949219 201.050781 L 92.910156 189.71875 C 92.972656 188.96875 92.417969 188.304688 91.664062 188.242188 C 90.960938 188.171875 90.253906 188.734375 90.1875 189.488281 L 89.226562 200.820312 C 89.164062 201.574219 89.722656 202.234375 90.472656 202.296875 C 90.511719 202.300781 90.550781 202.300781 90.589844 202.300781 Z M 113.179688 193.722656 C 112.421875 193.722656 111.8125 194.332031 111.8125 195.089844 L 111.8125 204.53125 C 111.8125 205.289062 112.421875 205.898438 113.179688 205.898438 C 113.933594 205.898438 114.542969 205.289062 114.542969 204.53125 L 114.542969 195.089844 C 114.542969 194.332031 113.933594 193.722656 113.179688 193.722656 Z M 134.988281 251.957031 C 135.003906 251.957031 135.019531 251.957031 135.035156 251.957031 C 135.785156 251.933594 136.378906 251.300781 136.355469 250.546875 L 135.410156 221.273438 C 135.382812 220.519531 134.875 219.867188 134 219.953125 C 133.246094 219.976562 132.652344 220.605469 132.679688 221.359375 L 133.621094 250.636719 C 133.648438 251.375 134.253906 251.957031 134.988281 251.957031 Z M 109.910156 299.34375 C 109.828125 300.09375 110.375 300.765625 111.125 300.847656 C 111.175781 300.851562 111.222656 300.855469 111.269531 300.855469 C 111.960938 300.855469 112.550781 300.332031 112.625 299.628906 L 114.511719 281.6875 C 114.59375 280.9375 114.046875 280.265625 113.296875 280.183594 C 112.496094 280.09375 111.875 280.648438 111.796875 281.402344 Z M 163.652344 198.191406 L 163.652344 188.75 C 163.652344 187.992188 163.042969 187.382812 162.289062 187.382812 C 161.53125 187.382812 160.921875 187.992188 160.921875 188.75 L 160.921875 198.191406 C 160.921875 198.949219 161.53125 199.558594 162.289062 199.558594 C 163.042969 199.558594 163.652344 198.949219 163.652344 198.191406 Z M 166.488281 322.515625 L 166.488281 303.628906 C 166.488281 302.875 165.878906 302.261719 165.121094 302.261719 C 164.367188 302.261719 163.753906 302.875 163.753906 303.628906 L 163.753906 322.515625 C 163.753906 323.273438 164.367188 323.882812 165.121094 323.882812 C 165.878906 323.882812 166.488281 323.273438 166.488281 322.515625 Z M 145.710938 386.863281 L 145.710938 361.363281 C 145.710938 360.609375 145.097656 360 144.34375 360 C 143.589844 360 142.976562 360.609375 142.976562 361.363281 L 142.976562 386.863281 C 142.976562 387.621094 143.589844 388.230469 144.34375 388.230469 C 145.097656 388.230469 145.710938 387.621094 145.710938 386.863281 Z M 193.453125 187.875 C 192.699219 187.875 192.085938 188.484375 192.085938 189.238281 L 192.085938 198.683594 C 192.085938 199.4375 192.699219 200.050781 193.453125 200.050781 C 194.207031 200.050781 194.820312 199.4375 194.820312 198.683594 L 194.820312 189.238281 C 194.820312 188.484375 194.207031 187.875 193.453125 187.875 Z M 215.265625 226.003906 C 215.277344 226.003906 215.292969 226.003906 215.308594 226.003906 C 216.0625 225.980469 216.652344 225.347656 216.628906 224.59375 L 215.6875 195.316406 C 215.660156 194.566406 215.113281 193.941406 214.273438 193.996094 C 213.523438 194.019531 212.929688 194.652344 212.953125 195.40625 L 213.898438 224.683594 C 213.921875 225.421875 214.53125 226.003906 215.265625 226.003906 Z M 190.183594 267.722656 C 190.105469 268.472656 190.648438 269.144531 191.402344 269.222656 C 191.449219 269.230469 191.496094 269.230469 191.546875 269.230469 C 192.234375 269.230469 192.828125 268.710938 192.902344 268.007812 L 194.789062 250.0625 C 194.867188 249.316406 194.324219 248.640625 193.574219 248.5625 C 192.769531 248.464844 192.148438 249.027344 192.070312 249.777344 Z M 242.5625 211.65625 C 243.316406 211.65625 243.929688 211.046875 243.929688 210.289062 L 243.929688 200.84375 C 243.929688 200.089844 243.316406 199.480469 242.5625 199.480469 C 241.808594 199.480469 241.195312 200.089844 241.195312 200.84375 L 241.195312 210.289062 C 241.195312 211.046875 241.808594 211.65625 242.5625 211.65625 Z M 246.761719 281.269531 L 246.761719 262.382812 C 246.761719 261.625 246.152344 261.015625 245.398438 261.015625 C 244.640625 261.015625 244.03125 261.625 244.03125 262.382812 L 244.03125 281.269531 C 244.03125 282.023438 244.640625 282.636719 245.398438 282.636719 C 246.152344 282.636719 246.761719 282.023438 246.761719 281.269531 Z M 225.984375 349.144531 L 225.984375 323.644531 C 225.984375 322.886719 225.375 322.277344 224.617188 322.277344 C 223.863281 322.277344 223.253906 322.886719 223.253906 323.644531 L 223.253906 349.144531 C 223.253906 349.898438 223.863281 350.507812 224.617188 350.507812 C 225.375 350.507812 225.984375 349.898438 225.984375 349.144531 Z M 169.125 397.792969 C 169.175781 397.796875 169.230469 397.800781 169.285156 397.800781 C 169.96875 397.800781 170.558594 397.289062 170.640625 396.589844 C 171.480469 389.304688 171.636719 381.898438 171.105469 374.578125 C 171.050781 373.824219 170.40625 373.253906 169.644531 373.316406 C 168.890625 373.371094 168.328125 374.023438 168.378906 374.777344 C 168.898438 381.925781 168.746094 389.160156 167.921875 396.277344 C 167.839844 397.027344 168.375 397.707031 169.125 397.792969 Z M 194.074219 334.097656 L 193.113281 345.429688 C 193.046875 346.183594 193.605469 346.84375 194.359375 346.90625 C 194.394531 346.910156 194.433594 346.914062 194.476562 346.914062 C 195.175781 346.914062 195.773438 346.375 195.832031 345.660156 L 196.796875 334.328125 C 196.859375 333.578125 196.304688 332.917969 195.554688 332.851562 C 194.808594 332.792969 194.140625 333.34375 194.074219 334.097656 Z M 286.085938 201.425781 L 286.085938 191.984375 C 286.085938 191.226562 285.472656 190.617188 284.71875 190.617188 C 283.964844 190.617188 283.351562 191.226562 283.351562 191.984375 L 283.351562 201.425781 C 283.351562 202.179688 283.964844 202.792969 284.71875 202.792969 C 285.472656 202.792969 286.085938 202.179688 286.085938 201.425781 Z M 288.917969 293.730469 L 288.917969 274.84375 C 288.917969 274.085938 288.308594 273.476562 287.554688 273.476562 C 286.796875 273.476562 286.1875 274.085938 286.1875 274.84375 L 286.1875 293.730469 C 286.1875 294.484375 286.796875 295.09375 287.554688 295.09375 C 288.308594 295.09375 288.917969 294.484375 288.917969 293.730469 Z M 317.25 207.546875 L 317.25 198.105469 C 317.25 197.347656 316.640625 196.738281 315.882812 196.738281 C 315.128906 196.738281 314.519531 197.347656 314.519531 198.105469 L 314.519531 207.546875 C 314.519531 208.304688 315.128906 208.914062 315.882812 208.914062 C 316.640625 208.914062 317.25 208.304688 317.25 207.546875 Z M 312.617188 261.964844 C 312.535156 262.714844 313.082031 263.386719 313.832031 263.464844 C 313.878906 263.472656 313.929688 263.472656 313.976562 263.472656 C 314.664062 263.472656 315.261719 262.953125 315.332031 262.25 L 317.21875 244.304688 C 317.300781 243.554688 316.753906 242.882812 316.003906 242.804688 C 315.222656 242.71875 314.578125 243.269531 314.503906 244.019531 Z M 291.554688 367.046875 C 291.609375 367.050781 291.660156 367.054688 291.714844 367.054688 C 292.398438 367.054688 292.992188 366.542969 293.070312 365.84375 C 293.910156 358.554688 294.070312 351.148438 293.539062 343.832031 C 293.480469 343.078125 292.800781 342.496094 292.074219 342.566406 C 291.324219 342.621094 290.757812 343.277344 290.8125 344.027344 C 291.332031 351.175781 291.175781 358.414062 290.355469 365.53125 C 290.269531 366.28125 290.804688 366.957031 291.554688 367.046875 Z M 318.265625 373.667969 L 319.226562 362.335938 C 319.289062 361.582031 318.730469 360.921875 317.980469 360.859375 C 317.304688 360.78125 316.566406 361.351562 316.503906 362.105469 L 315.542969 373.433594 C 315.480469 374.1875 316.035156 374.847656 316.789062 374.910156 C 316.828125 374.914062 316.867188 374.917969 316.90625 374.917969 C 317.609375 374.917969 318.207031 374.378906 318.265625 373.667969 Z M 113 209.710938 L 113 219.152344 C 113 219.910156 113.609375 220.519531 114.367188 220.519531 C 115.121094 220.519531 115.730469 219.910156 115.730469 219.152344 L 115.730469 209.710938 C 115.730469 208.953125 115.121094 208.34375 114.367188 208.34375 C 113.609375 208.34375 113 208.953125 113 209.710938 Z M 88.519531 385.144531 L 89.460938 414.421875 C 89.484375 415.164062 90.09375 415.746094 90.828125 415.746094 C 90.839844 415.746094 90.855469 415.746094 90.871094 415.746094 C 91.625 415.71875 92.214844 415.089844 92.191406 414.335938 L 91.25 385.058594 C 91.226562 384.320312 90.617188 383.734375 89.882812 383.734375 C 89.871094 383.734375 89.855469 383.734375 89.839844 383.738281 C 89.085938 383.761719 88.496094 384.390625 88.519531 385.144531 Z M 264.808594 356.117188 C 264.808594 356.871094 265.417969 357.484375 266.175781 357.484375 C 266.929688 357.484375 267.539062 356.871094 267.539062 356.117188 L 267.539062 346.671875 C 267.539062 345.917969 266.929688 345.304688 266.175781 345.304688 C 265.417969 345.304688 264.808594 345.917969 264.808594 346.671875 Z M 266.175781 234.867188 C 266.929688 234.867188 267.539062 234.257812 267.539062 233.503906 L 267.539062 224.058594 C 267.539062 223.304688 266.929688 222.691406 266.175781 222.691406 C 265.417969 222.691406 264.808594 223.304688 264.808594 224.058594 L 264.808594 233.503906 C 264.808594 234.257812 265.417969 234.867188 266.175781 234.867188 Z M 515.464844 184.152344 C 514.707031 184.09375 514.058594 184.664062 514 185.417969 C 513.472656 192.726562 513.628906 200.132812 514.472656 207.429688 C 514.550781 208.128906 515.144531 208.640625 515.828125 208.640625 C 515.878906 208.640625 515.933594 208.636719 515.988281 208.632812 C 516.734375 208.546875 517.273438 207.867188 517.1875 207.117188 C 516.363281 199.992188 516.210938 192.753906 516.726562 185.613281 C 516.78125 184.863281 516.214844 184.207031 515.464844 184.152344 Z M 506.347656 287.300781 L 506.347656 304.300781 C 506.347656 305.054688 506.957031 305.667969 507.710938 305.667969 C 508.46875 305.667969 509.078125 305.054688 509.078125 304.300781 L 509.078125 287.300781 C 509.078125 286.546875 508.46875 285.933594 507.710938 285.933594 C 506.957031 285.933594 506.347656 286.546875 506.347656 287.300781 Z M 489.558594 194.21875 C 488.808594 194.28125 488.25 194.941406 488.3125 195.695312 L 489.277344 207.027344 C 489.339844 207.738281 489.933594 208.277344 490.636719 208.277344 C 490.675781 208.277344 490.714844 208.277344 490.753906 208.269531 C 491.503906 208.207031 492.0625 207.546875 492 206.792969 L 491.035156 195.464844 C 490.972656 194.710938 490.242188 194.136719 489.558594 194.21875 Z M 468.046875 203.15625 C 468.800781 203.15625 469.410156 202.546875 469.410156 201.789062 L 469.410156 192.347656 C 469.410156 191.59375 468.800781 190.980469 468.046875 190.980469 C 467.289062 190.980469 466.679688 191.59375 466.679688 192.347656 L 466.679688 201.789062 C 466.679688 202.546875 467.289062 203.15625 468.046875 203.15625 Z M 447.179688 205.601562 C 446.445312 205.601562 445.835938 206.183594 445.8125 206.921875 L 444.867188 236.199219 C 444.84375 236.953125 445.4375 237.585938 446.191406 237.609375 C 446.207031 237.609375 446.222656 237.609375 446.234375 237.609375 C 446.96875 237.609375 447.578125 237.027344 447.601562 236.289062 L 448.546875 207.011719 C 448.570312 206.257812 447.976562 205.628906 447.226562 205.601562 C 447.210938 205.601562 447.191406 205.601562 447.179688 205.601562 Z M 469.953125 288.394531 C 470 288.394531 470.050781 288.390625 470.097656 288.386719 C 470.851562 288.308594 471.394531 287.636719 471.3125 286.886719 L 469.429688 268.941406 C 469.351562 268.191406 468.652344 267.636719 467.929688 267.726562 C 467.179688 267.804688 466.632812 268.476562 466.714844 269.226562 L 468.597656 287.171875 C 468.671875 287.871094 469.265625 288.394531 469.953125 288.394531 Z M 417.570312 194.722656 L 417.570312 204.167969 C 417.570312 204.925781 418.179688 205.535156 418.9375 205.535156 C 419.691406 205.535156 420.300781 204.925781 420.300781 204.167969 L 420.300781 194.722656 C 420.300781 193.96875 419.691406 193.359375 418.9375 193.359375 C 418.179688 193.359375 417.570312 193.96875 417.570312 194.722656 Z M 414.734375 292.113281 L 414.734375 311.003906 C 414.734375 311.757812 415.347656 312.367188 416.101562 312.367188 C 416.855469 312.367188 417.46875 311.757812 417.46875 311.003906 L 417.46875 292.113281 C 417.46875 291.359375 416.855469 290.746094 416.101562 290.746094 C 415.347656 290.746094 414.734375 291.359375 414.734375 292.113281 Z M 435.515625 333.359375 L 435.515625 358.859375 C 435.515625 359.613281 436.125 360.222656 436.878906 360.222656 C 437.636719 360.222656 438.246094 359.613281 438.246094 358.859375 L 438.246094 333.359375 C 438.246094 332.605469 437.636719 331.992188 436.878906 331.992188 C 436.125 331.992188 435.515625 332.605469 435.515625 333.359375 Z M 387.769531 214.398438 C 388.527344 214.398438 389.136719 213.789062 389.136719 213.03125 L 389.136719 203.589844 C 389.136719 202.832031 388.527344 202.222656 387.769531 202.222656 C 387.015625 202.222656 386.40625 202.832031 386.40625 203.589844 L 386.40625 213.03125 C 386.40625 213.789062 387.015625 214.398438 387.769531 214.398438 Z M 365.960938 217.140625 C 366.695312 217.140625 367.304688 216.558594 367.328125 215.820312 L 368.269531 186.542969 C 368.292969 185.789062 367.703125 185.15625 366.949219 185.132812 C 366.933594 185.132812 366.917969 185.132812 366.90625 185.132812 C 366.171875 185.132812 365.5625 185.714844 365.539062 186.453125 L 364.597656 215.730469 C 364.574219 216.484375 365.164062 217.117188 365.921875 217.140625 C 365.933594 217.140625 365.949219 217.140625 365.960938 217.140625 Z M 389.679688 257.71875 C 389.726562 257.71875 389.773438 257.714844 389.824219 257.710938 C 390.574219 257.628906 391.121094 256.960938 391.039062 256.207031 L 389.15625 238.265625 C 389.078125 237.511719 388.378906 236.972656 387.65625 237.046875 C 386.902344 237.128906 386.359375 237.796875 386.4375 238.550781 L 388.324219 256.492188 C 388.394531 257.195312 388.988281 257.71875 389.679688 257.71875 Z M 337.292969 212.453125 L 337.292969 221.898438 C 337.292969 222.652344 337.90625 223.261719 338.660156 223.261719 C 339.417969 223.261719 340.027344 222.652344 340.027344 221.898438 L 340.027344 212.453125 C 340.027344 211.699219 339.417969 211.085938 338.660156 211.085938 C 337.90625 211.085938 337.292969 211.699219 337.292969 212.453125 Z M 334.464844 255.679688 L 334.464844 274.570312 C 334.464844 275.324219 335.074219 275.933594 335.828125 275.933594 C 336.585938 275.933594 337.195312 275.324219 337.195312 274.570312 L 337.195312 255.679688 C 337.195312 254.925781 336.585938 254.3125 335.828125 254.3125 C 335.074219 254.3125 334.464844 254.925781 334.464844 255.679688 Z M 355.238281 310.332031 L 355.238281 335.828125 C 355.238281 336.585938 355.851562 337.195312 356.605469 337.195312 C 357.359375 337.195312 357.972656 336.585938 357.972656 335.828125 L 357.972656 310.332031 C 357.972656 309.578125 357.359375 308.964844 356.605469 308.964844 C 355.851562 308.964844 355.238281 309.578125 355.238281 310.332031 Z M 411.578125 352.140625 C 410.855469 352.082031 410.171875 352.648438 410.117188 353.402344 C 409.585938 360.722656 409.742188 368.128906 410.585938 375.414062 C 410.664062 376.113281 411.257812 376.625 411.941406 376.625 C 411.992188 376.625 412.046875 376.625 412.101562 376.617188 C 412.847656 376.53125 413.386719 375.851562 413.300781 375.105469 C 412.480469 367.984375 412.324219 360.75 412.84375 353.601562 C 412.898438 352.847656 412.332031 352.195312 411.578125 352.140625 Z M 385.675781 361.714844 C 384.921875 361.777344 384.367188 362.4375 384.429688 363.191406 L 385.390625 374.523438 C 385.449219 375.234375 386.046875 375.773438 386.75 375.773438 C 386.789062 375.773438 386.828125 375.769531 386.867188 375.765625 C 387.617188 375.703125 388.175781 375.042969 388.113281 374.289062 L 387.152344 362.957031 C 387.089844 362.203125 386.34375 361.628906 385.675781 361.714844 Z M 362.796875 336.957031 L 362.796875 346.402344 C 362.796875 347.15625 363.40625 347.765625 364.160156 347.765625 C 364.917969 347.765625 365.527344 347.15625 365.527344 346.402344 L 365.527344 336.957031 C 365.527344 336.203125 364.917969 335.589844 364.160156 335.589844 C 363.40625 335.589844 362.796875 336.203125 362.796875 336.957031 Z M 343.839844 373.699219 L 342.894531 402.976562 C 342.871094 403.730469 343.464844 404.359375 344.214844 404.382812 C 344.230469 404.386719 344.25 404.386719 344.261719 404.386719 C 344.996094 404.386719 345.605469 403.800781 345.628906 403.0625 L 346.574219 373.785156 C 346.597656 373.035156 346.003906 372.402344 345.25 372.378906 C 344.378906 372.289062 343.867188 372.945312 343.839844 373.699219 Z M 8.554688 161.796875 C 4.632812 164.71875 3.320312 170.25 6.40625 173.835938 C 10.390625 178.472656 18.460938 177.863281 25.113281 177.195312 C 45.753906 175.125 210.160156 177.792969 294.1875 177.183594 C 381.171875 176.914062 496.855469 175.128906 513.945312 177.121094 C 520.597656 177.898438 528.667969 178.601562 532.652344 173.21875 C 535.738281 169.046875 534.425781 162.625 530.503906 159.226562 C 526.582031 155.828125 520.777344 155.207031 515.800781 156.675781 C 518.15625 148.097656 513.890625 138.167969 506.046875 133.96875 C 498.5625 129.964844 488.558594 131.570312 482.585938 137.554688 C 482.527344 137.402344 482.449219 137.253906 482.332031 137.125 C 482.117188 136.886719 481.832031 136.761719 481.539062 136.710938 C 479.96875 124.1875 473.847656 112.042969 463.707031 104.554688 C 453.1875 96.785156 438.265625 94.765625 426.679688 100.804688 C 426.597656 100.757812 426.511719 100.730469 426.425781 100.703125 C 427.972656 89.277344 428.402344 77.34375 424.382812 66.542969 C 420.335938 55.667969 410.90625 46.160156 399.363281 44.953125 C 385.289062 43.484375 373.164062 53.9375 363.027344 63.9375 C 363.390625 63.390625 363.339844 62.65625 362.84375 62.191406 C 362.617188 61.984375 362.335938 61.886719 362.050781 61.859375 C 359.695312 40.605469 347.109375 20.515625 328.488281 9.992188 C 309.054688 -0.992188 283.566406 -0.8125 264.761719 11.222656 C 258.4375 15.269531 253.03125 20.65625 248.761719 26.832031 C 235.667969 25.578125 222.0625 27.78125 210.570312 33.371094 C 191.136719 42.824219 178.265625 61.242188 176.75 80.40625 C 166.472656 71.621094 154.105469 62.160156 139.695312 63.457031 C 128.152344 64.496094 118.722656 72.675781 114.675781 82.035156 C 110.625 91.394531 111.089844 101.742188 112.664062 111.636719 C 101.039062 106.285156 85.957031 108.007812 75.351562 114.746094 C 64.746094 121.488281 58.519531 132.613281 57.320312 143.910156 C 51.488281 138.132812 40.855469 136.445312 33.011719 140.058594 C 25.167969 143.671875 20.902344 152.21875 23.257812 159.601562 C 18.28125 158.335938 12.476562 158.871094 8.554688 161.796875 Z M 8.554688 161.796875 " fill-opacity="1" fill-rule="nonzero"/></g><g clip-path="url(#1c0783dcc3)"><path fill="#5c799a" d="M 250.542969 135.359375 C 250.28125 135.617188 249.941406 135.78125 249.558594 135.753906 C 249.1875 135.746094 248.839844 135.589844 248.585938 135.324219 C 243.84375 130.285156 238.46875 124.574219 231.707031 121.855469 C 222.886719 118.3125 213.050781 120.058594 202.027344 122.511719 C 201.289062 122.671875 200.558594 122.210938 200.398438 121.476562 C 200.234375 120.738281 200.699219 120.007812 201.433594 119.847656 C 210.777344 117.761719 222.402344 115.175781 232.726562 119.320312 C 239.589844 122.078125 244.933594 127.472656 249.636719 132.453125 C 257.066406 125.761719 267.574219 122.820312 277.410156 124.78125 C 287.699219 126.828125 296.625 134.105469 300.699219 143.773438 C 300.992188 144.46875 300.664062 145.269531 299.972656 145.5625 C 299.796875 145.636719 299.617188 145.671875 299.441406 145.671875 C 298.90625 145.671875 298.402344 145.355469 298.179688 144.835938 C 294.453125 135.992188 286.289062 129.335938 276.875 127.460938 C 267.472656 125.59375 257.371094 128.617188 250.542969 135.359375 Z M 238.230469 70.046875 C 249.1875 74.242188 256.589844 86.214844 255.453125 97.890625 C 255.382812 98.640625 255.929688 99.308594 256.679688 99.382812 C 256.726562 99.386719 256.773438 99.386719 256.816406 99.386719 C 257.511719 99.386719 258.105469 98.859375 258.175781 98.152344 C 259.421875 85.296875 251.273438 72.117188 239.207031 67.496094 C 238.507812 67.226562 237.714844 67.578125 237.445312 68.28125 C 237.175781 68.988281 237.527344 69.777344 238.230469 70.046875 Z M 328.539062 92.640625 C 323.453125 96.757812 320.355469 103.117188 320.246094 109.660156 C 320.1875 113.121094 321.214844 115.691406 323.214844 117.09375 C 323.453125 117.261719 323.726562 117.34375 324 117.34375 C 324.429688 117.34375 324.851562 117.140625 325.117188 116.761719 C 325.550781 116.144531 325.402344 115.292969 324.785156 114.859375 C 323.15625 113.714844 322.957031 111.140625 322.980469 109.707031 C 323.074219 103.964844 325.796875 98.378906 330.257812 94.761719 C 334.726562 91.148438 340.761719 89.652344 346.386719 90.746094 C 347.085938 90.882812 347.742188 90.480469 347.953125 89.816406 C 350.953125 80.3125 356.128906 71.425781 362.914062 64.125 C 362.964844 64.066406 362.984375 64 363.027344 63.9375 C 363.390625 63.390625 363.339844 62.65625 362.84375 62.191406 C 362.617188 61.984375 362.335938 61.886719 362.050781 61.859375 C 361.636719 61.816406 361.214844 61.9375 360.910156 62.261719 C 354.121094 69.570312 348.882812 78.402344 345.714844 87.867188 C 339.65625 87.027344 333.3125 88.773438 328.539062 92.640625 Z M 492.753906 144.394531 C 489.925781 143.402344 487.152344 145.289062 485.667969 146.304688 C 485.046875 146.726562 484.886719 147.578125 485.308594 148.199219 C 485.738281 148.824219 486.589844 148.980469 487.207031 148.5625 C 488.824219 147.460938 490.496094 146.503906 491.855469 146.972656 C 493.003906 147.375 493.65625 148.726562 493.941406 149.496094 C 495.382812 153.394531 493.828125 158.289062 490.398438 160.636719 C 488.304688 162.070312 485.535156 162.78125 481.679688 162.871094 C 477.644531 162.984375 474.796875 162.070312 473.300781 160.210938 C 472.25 158.90625 471.796875 156.988281 472.054688 154.945312 C 472.269531 153.25 472.921875 151.484375 474.167969 149.21875 C 476.277344 145.394531 478.992188 141.976562 482.234375 139.054688 C 482.664062 138.664062 482.78125 138.066406 482.585938 137.554688 C 482.527344 137.402344 482.449219 137.253906 482.332031 137.125 C 482.117188 136.886719 481.832031 136.761719 481.539062 136.710938 C 481.140625 136.648438 480.722656 136.734375 480.402344 137.023438 C 476.9375 140.148438 474.03125 143.808594 471.773438 147.898438 C 470.816406 149.636719 469.679688 151.96875 469.34375 154.601562 C 468.992188 157.375 469.660156 160.046875 471.171875 161.925781 C 473.140625 164.371094 476.484375 165.609375 481.117188 165.609375 C 481.324219 165.609375 481.53125 165.605469 481.742188 165.601562 C 486.148438 165.5 489.390625 164.636719 491.941406 162.894531 C 496.429688 159.820312 498.394531 153.652344 496.503906 148.546875 C 495.722656 146.4375 494.390625 144.960938 492.753906 144.394531 Z M 268.46875 84.457031 C 268.453125 85.214844 269.046875 85.839844 269.804688 85.855469 C 269.8125 85.855469 269.824219 85.855469 269.835938 85.855469 C 270.574219 85.855469 271.183594 85.265625 271.203125 84.523438 C 271.335938 78.765625 268.914062 72.972656 264.730469 69.019531 C 264.1875 68.5 263.3125 68.527344 262.800781 69.074219 C 262.28125 69.621094 262.304688 70.488281 262.855469 71.007812 C 266.488281 74.433594 268.585938 79.464844 268.46875 84.457031 Z M 277.5625 85.585938 C 277.507812 86.339844 278.074219 86.992188 278.824219 87.050781 C 278.859375 87.050781 278.894531 87.054688 278.929688 87.054688 C 279.636719 87.054688 280.238281 86.507812 280.289062 85.789062 C 280.777344 79.246094 278.8125 72.476562 274.898438 67.214844 C 274.445312 66.605469 273.585938 66.484375 272.988281 66.933594 C 272.382812 67.382812 272.253906 68.238281 272.707031 68.84375 C 276.230469 73.585938 278.003906 79.6875 277.5625 85.585938 Z M 374.351562 146.023438 C 374.6875 145.347656 374.414062 144.527344 373.742188 144.191406 C 373.066406 143.859375 372.25 144.128906 371.90625 144.800781 C 369.71875 149.1875 370.171875 154.804688 373.035156 158.78125 C 373.304688 159.152344 373.71875 159.347656 374.144531 159.347656 C 374.421875 159.347656 374.703125 159.265625 374.941406 159.089844 C 375.554688 158.648438 375.695312 157.796875 375.25 157.183594 C 372.964844 154.007812 372.605469 149.523438 374.351562 146.023438 Z M 382.109375 142.003906 C 381.445312 141.675781 380.613281 141.949219 380.28125 142.625 C 378.230469 146.785156 377.882812 151.703125 379.332031 156.109375 C 379.515625 156.683594 380.054688 157.046875 380.628906 157.046875 C 380.769531 157.046875 380.914062 157.027344 381.054688 156.980469 C 381.769531 156.746094 382.160156 155.972656 381.925781 155.253906 C 380.699219 151.523438 380.992188 147.359375 382.730469 143.832031 C 383.0625 143.15625 382.785156 142.335938 382.109375 142.003906 Z M 302.21875 148.472656 C 301.539062 148.792969 301.246094 149.609375 301.570312 150.289062 C 303.175781 153.679688 304.574219 157.214844 305.722656 160.804688 C 305.90625 161.386719 306.445312 161.753906 307.023438 161.753906 C 307.164062 161.753906 307.300781 161.734375 307.441406 161.691406 C 308.15625 161.460938 308.554688 160.691406 308.324219 159.972656 C 307.136719 156.269531 305.699219 152.617188 304.039062 149.121094 C 303.710938 148.433594 302.894531 148.148438 302.21875 148.472656 Z M 65.242188 209.121094 C 65.292969 209.128906 65.347656 209.132812 65.398438 209.132812 C 66.082031 209.132812 66.675781 208.617188 66.753906 207.921875 C 67.597656 200.632812 67.753906 193.226562 67.222656 185.910156 C 67.167969 185.15625 66.503906 184.582031 65.761719 184.644531 C 65.007812 184.699219 64.441406 185.355469 64.496094 186.105469 C 65.015625 193.253906 64.863281 200.488281 64.039062 207.609375 C 63.953125 208.359375 64.492188 209.035156 65.242188 209.121094 Z M 74.878906 315.816406 L 74.878906 298.816406 C 74.878906 298.0625 74.269531 297.449219 73.515625 297.449219 C 72.757812 297.449219 72.148438 298.0625 72.148438 298.816406 L 72.148438 315.816406 C 72.148438 316.570312 72.757812 317.183594 73.515625 317.183594 C 74.269531 317.183594 74.878906 316.570312 74.878906 315.816406 Z M 90.589844 202.300781 C 91.292969 202.300781 91.890625 201.765625 91.949219 201.050781 L 92.910156 189.71875 C 92.972656 188.96875 92.417969 188.304688 91.664062 188.242188 C 90.960938 188.171875 90.253906 188.734375 90.1875 189.488281 L 89.226562 200.820312 C 89.164062 201.574219 89.722656 202.234375 90.472656 202.296875 C 90.511719 202.300781 90.550781 202.300781 90.589844 202.300781 Z M 114.542969 204.53125 L 114.542969 195.089844 C 114.542969 194.332031 113.933594 193.722656 113.179688 193.722656 C 112.421875 193.722656 111.8125 194.332031 111.8125 195.089844 L 111.8125 204.53125 C 111.8125 205.289062 112.421875 205.898438 113.179688 205.898438 C 113.933594 205.898438 114.542969 205.289062 114.542969 204.53125 Z M 134 219.953125 C 133.246094 219.976562 132.652344 220.605469 132.679688 221.359375 L 133.621094 250.636719 C 133.648438 251.375 134.253906 251.957031 134.988281 251.957031 C 135.003906 251.957031 135.019531 251.957031 135.035156 251.957031 C 135.785156 251.933594 136.378906 251.300781 136.355469 250.546875 L 135.410156 221.273438 C 135.382812 220.519531 134.875 219.867188 134 219.953125 Z M 113.296875 280.183594 C 112.496094 280.09375 111.875 280.648438 111.796875 281.402344 L 109.910156 299.34375 C 109.828125 300.09375 110.375 300.765625 111.125 300.847656 C 111.175781 300.851562 111.222656 300.855469 111.269531 300.855469 C 111.960938 300.855469 112.550781 300.332031 112.625 299.628906 L 114.511719 281.6875 C 114.59375 280.9375 114.046875 280.265625 113.296875 280.183594 Z M 162.289062 187.382812 C 161.53125 187.382812 160.921875 187.992188 160.921875 188.75 L 160.921875 198.191406 C 160.921875 198.949219 161.53125 199.558594 162.289062 199.558594 C 163.042969 199.558594 163.652344 198.949219 163.652344 198.191406 L 163.652344 188.75 C 163.652344 187.992188 163.042969 187.382812 162.289062 187.382812 Z M 165.121094 302.261719 C 164.367188 302.261719 163.753906 302.875 163.753906 303.628906 L 163.753906 322.515625 C 163.753906 323.273438 164.367188 323.882812 165.121094 323.882812 C 165.878906 323.882812 166.488281 323.273438 166.488281 322.515625 L 166.488281 303.628906 C 166.488281 302.875 165.878906 302.261719 165.121094 302.261719 Z M 144.34375 360 C 143.589844 360 142.976562 360.609375 142.976562 361.363281 L 142.976562 386.863281 C 142.976562 387.621094 143.589844 388.230469 144.34375 388.230469 C 145.097656 388.230469 145.710938 387.621094 145.710938 386.863281 L 145.710938 361.363281 C 145.710938 360.609375 145.097656 360 144.34375 360 Z M 193.453125 200.050781 C 194.207031 200.050781 194.820312 199.4375 194.820312 198.683594 L 194.820312 189.238281 C 194.820312 188.484375 194.207031 187.875 193.453125 187.875 C 192.699219 187.875 192.085938 188.484375 192.085938 189.238281 L 192.085938 198.683594 C 192.085938 199.4375 192.699219 200.050781 193.453125 200.050781 Z M 214.273438 193.996094 C 213.523438 194.019531 212.929688 194.652344 212.953125 195.40625 L 213.898438 224.683594 C 213.921875 225.421875 214.53125 226.003906 215.265625 226.003906 C 215.277344 226.003906 215.292969 226.003906 215.308594 226.003906 C 216.0625 225.980469 216.652344 225.347656 216.628906 224.59375 L 215.6875 195.316406 C 215.660156 194.566406 215.113281 193.941406 214.273438 193.996094 Z M 193.574219 248.5625 C 192.769531 248.464844 192.148438 249.027344 192.070312 249.777344 L 190.183594 267.722656 C 190.105469 268.472656 190.648438 269.144531 191.402344 269.222656 C 191.449219 269.230469 191.496094 269.230469 191.546875 269.230469 C 192.234375 269.230469 192.828125 268.710938 192.902344 268.007812 L 194.789062 250.0625 C 194.867188 249.316406 194.324219 248.640625 193.574219 248.5625 Z M 242.5625 199.480469 C 241.808594 199.480469 241.195312 200.089844 241.195312 200.84375 L 241.195312 210.289062 C 241.195312 211.042969 241.808594 211.65625 242.5625 211.65625 C 243.316406 211.65625 243.929688 211.042969 243.929688 210.289062 L 243.929688 200.84375 C 243.929688 200.089844 243.316406 199.480469 242.5625 199.480469 Z M 245.398438 261.015625 C 244.640625 261.015625 244.03125 261.625 244.03125 262.382812 L 244.03125 281.269531 C 244.03125 282.023438 244.640625 282.636719 245.398438 282.636719 C 246.152344 282.636719 246.761719 282.023438 246.761719 281.269531 L 246.761719 262.382812 C 246.761719 261.625 246.152344 261.015625 245.398438 261.015625 Z M 224.617188 322.277344 C 223.863281 322.277344 223.253906 322.886719 223.253906 323.644531 L 223.253906 349.144531 C 223.253906 349.898438 223.863281 350.507812 224.617188 350.507812 C 225.375 350.507812 225.984375 349.898438 225.984375 349.144531 L 225.984375 323.644531 C 225.984375 322.886719 225.375 322.277344 224.617188 322.277344 Z M 169.644531 373.316406 C 168.890625 373.371094 168.328125 374.023438 168.378906 374.777344 C 168.898438 381.925781 168.746094 389.160156 167.921875 396.277344 C 167.839844 397.027344 168.375 397.707031 169.125 397.792969 C 169.175781 397.796875 169.230469 397.800781 169.285156 397.800781 C 169.96875 397.800781 170.558594 397.289062 170.640625 396.589844 C 171.480469 389.304688 171.636719 381.898438 171.105469 374.578125 C 171.050781 373.824219 170.40625 373.253906 169.644531 373.316406 Z M 195.554688 332.851562 C 194.808594 332.792969 194.140625 333.34375 194.074219 334.097656 L 193.113281 345.429688 C 193.046875 346.183594 193.605469 346.84375 194.359375 346.90625 C 194.394531 346.910156 194.433594 346.914062 194.476562 346.914062 C 195.175781 346.914062 195.773438 346.375 195.832031 345.660156 L 196.796875 334.328125 C 196.859375 333.578125 196.304688 332.917969 195.554688 332.851562 Z M 283.351562 191.984375 L 283.351562 201.425781 C 283.351562 202.179688 283.964844 202.792969 284.71875 202.792969 C 285.472656 202.792969 286.085938 202.179688 286.085938 201.425781 L 286.085938 191.984375 C 286.085938 191.226562 285.472656 190.617188 284.71875 190.617188 C 283.964844 190.617188 283.351562 191.226562 283.351562 191.984375 Z M 286.1875 274.84375 L 286.1875 293.730469 C 286.1875 294.484375 286.796875 295.09375 287.554688 295.09375 C 288.308594 295.09375 288.917969 294.484375 288.917969 293.730469 L 288.917969 274.84375 C 288.917969 274.085938 288.308594 273.476562 287.554688 273.476562 C 286.796875 273.476562 286.1875 274.085938 286.1875 274.84375 Z M 317.25 207.546875 L 317.25 198.105469 C 317.25 197.347656 316.640625 196.738281 315.882812 196.738281 C 315.128906 196.738281 314.519531 197.347656 314.519531 198.105469 L 314.519531 207.546875 C 314.519531 208.304688 315.128906 208.914062 315.882812 208.914062 C 316.640625 208.914062 317.25 208.304688 317.25 207.546875 Z M 312.617188 261.964844 C 312.535156 262.714844 313.082031 263.386719 313.832031 263.464844 C 313.878906 263.472656 313.929688 263.472656 313.976562 263.472656 C 314.664062 263.472656 315.261719 262.953125 315.332031 262.25 L 317.21875 244.304688 C 317.300781 243.554688 316.753906 242.882812 316.003906 242.804688 C 315.222656 242.71875 314.578125 243.269531 314.503906 244.019531 Z M 291.554688 367.046875 C 291.609375 367.050781 291.660156 367.054688 291.714844 367.054688 C 292.398438 367.054688 292.992188 366.542969 293.070312 365.84375 C 293.910156 358.554688 294.070312 351.148438 293.539062 343.832031 C 293.480469 343.078125 292.800781 342.496094 292.074219 342.566406 C 291.324219 342.621094 290.757812 343.277344 290.8125 344.027344 C 291.332031 351.175781 291.175781 358.414062 290.355469 365.53125 C 290.269531 366.28125 290.804688 366.957031 291.554688 367.046875 Z M 316.789062 374.910156 C 316.828125 374.914062 316.867188 374.917969 316.90625 374.917969 C 317.609375 374.917969 318.207031 374.378906 318.265625 373.667969 L 319.226562 362.335938 C 319.289062 361.582031 318.730469 360.921875 317.980469 360.859375 C 317.304688 360.78125 316.566406 361.351562 316.503906 362.105469 L 315.542969 373.433594 C 315.480469 374.1875 316.035156 374.847656 316.789062 374.910156 Z M 114.367188 208.34375 C 113.609375 208.34375 113 208.953125 113 209.710938 L 113 219.152344 C 113 219.910156 113.609375 220.519531 114.367188 220.519531 C 115.121094 220.519531 115.730469 219.910156 115.730469 219.152344 L 115.730469 209.710938 C 115.730469 208.953125 115.121094 208.34375 114.367188 208.34375 Z M 88.519531 385.144531 L 89.460938 414.421875 C 89.484375 415.164062 90.09375 415.746094 90.828125 415.746094 C 90.839844 415.746094 90.855469 415.746094 90.871094 415.746094 C 91.625 415.71875 92.214844 415.089844 92.191406 414.335938 L 91.25 385.058594 C 91.226562 384.320312 90.617188 383.734375 89.882812 383.734375 C 89.871094 383.734375 89.855469 383.734375 89.839844 383.738281 C 89.085938 383.761719 88.496094 384.390625 88.519531 385.144531 Z M 266.175781 345.304688 C 265.417969 345.304688 264.808594 345.917969 264.808594 346.671875 L 264.808594 356.117188 C 264.808594 356.871094 265.417969 357.484375 266.175781 357.484375 C 266.929688 357.484375 267.539062 356.871094 267.539062 356.117188 L 267.539062 346.671875 C 267.539062 345.917969 266.929688 345.304688 266.175781 345.304688 Z M 267.539062 224.058594 C 267.539062 223.304688 266.929688 222.691406 266.175781 222.691406 C 265.417969 222.691406 264.808594 223.304688 264.808594 224.058594 L 264.808594 233.503906 C 264.808594 234.257812 265.417969 234.867188 266.175781 234.867188 C 266.929688 234.867188 267.539062 234.257812 267.539062 233.503906 Z M 516.726562 185.613281 C 516.78125 184.863281 516.214844 184.207031 515.464844 184.152344 C 514.707031 184.09375 514.058594 184.664062 514 185.417969 C 513.472656 192.726562 513.628906 200.132812 514.472656 207.429688 C 514.550781 208.128906 515.144531 208.640625 515.828125 208.640625 C 515.878906 208.640625 515.933594 208.636719 515.988281 208.632812 C 516.734375 208.546875 517.273438 207.867188 517.1875 207.117188 C 516.363281 199.992188 516.210938 192.753906 516.726562 185.613281 Z M 507.710938 285.933594 C 506.957031 285.933594 506.347656 286.546875 506.347656 287.300781 L 506.347656 304.300781 C 506.347656 305.054688 506.957031 305.667969 507.710938 305.667969 C 508.46875 305.667969 509.078125 305.054688 509.078125 304.300781 L 509.078125 287.300781 C 509.078125 286.546875 508.46875 285.933594 507.710938 285.933594 Z M 489.558594 194.21875 C 488.808594 194.28125 488.25 194.941406 488.3125 195.695312 L 489.277344 207.027344 C 489.339844 207.738281 489.933594 208.277344 490.636719 208.277344 C 490.675781 208.277344 490.714844 208.277344 490.753906 208.269531 C 491.503906 208.207031 492.0625 207.546875 492 206.792969 L 491.035156 195.464844 C 490.972656 194.710938 490.242188 194.136719 489.558594 194.21875 Z M 468.046875 203.15625 C 468.800781 203.15625 469.410156 202.546875 469.410156 201.789062 L 469.410156 192.347656 C 469.410156 191.59375 468.800781 190.980469 468.046875 190.980469 C 467.289062 190.980469 466.679688 191.59375 466.679688 192.347656 L 466.679688 201.789062 C 466.679688 202.546875 467.289062 203.15625 468.046875 203.15625 Z M 447.226562 205.601562 C 447.210938 205.601562 447.191406 205.601562 447.179688 205.601562 C 446.445312 205.601562 445.835938 206.183594 445.8125 206.921875 L 444.867188 236.199219 C 444.84375 236.953125 445.4375 237.585938 446.191406 237.609375 C 446.207031 237.609375 446.222656 237.609375 446.234375 237.609375 C 446.96875 237.609375 447.578125 237.027344 447.601562 236.289062 L 448.546875 207.011719 C 448.570312 206.257812 447.976562 205.628906 447.226562 205.601562 Z M 467.929688 267.726562 C 467.179688 267.804688 466.632812 268.476562 466.714844 269.226562 L 468.597656 287.171875 C 468.671875 287.871094 469.265625 288.394531 469.953125 288.394531 C 470 288.394531 470.050781 288.390625 470.097656 288.386719 C 470.851562 288.308594 471.394531 287.636719 471.3125 286.886719 L 469.429688 268.941406 C 469.351562 268.191406 468.652344 267.636719 467.929688 267.726562 Z M 418.9375 193.359375 C 418.179688 193.359375 417.570312 193.96875 417.570312 194.722656 L 417.570312 204.167969 C 417.570312 204.921875 418.179688 205.535156 418.9375 205.535156 C 419.691406 205.535156 420.300781 204.921875 420.300781 204.167969 L 420.300781 194.722656 C 420.300781 193.96875 419.691406 193.359375 418.9375 193.359375 Z M 416.101562 290.746094 C 415.347656 290.746094 414.734375 291.359375 414.734375 292.113281 L 414.734375 311.003906 C 414.734375 311.757812 415.347656 312.367188 416.101562 312.367188 C 416.855469 312.367188 417.46875 311.757812 417.46875 311.003906 L 417.46875 292.113281 C 417.46875 291.359375 416.855469 290.746094 416.101562 290.746094 Z M 436.878906 331.992188 C 436.125 331.992188 435.515625 332.605469 435.515625 333.359375 L 435.515625 358.859375 C 435.515625 359.613281 436.125 360.222656 436.878906 360.222656 C 437.636719 360.222656 438.246094 359.613281 438.246094 358.859375 L 438.246094 333.359375 C 438.246094 332.605469 437.636719 331.992188 436.878906 331.992188 Z M 387.769531 214.398438 C 388.527344 214.398438 389.136719 213.789062 389.136719 213.03125 L 389.136719 203.589844 C 389.136719 202.832031 388.527344 202.222656 387.769531 202.222656 C 387.015625 202.222656 386.40625 202.832031 386.40625 203.589844 L 386.40625 213.03125 C 386.40625 213.789062 387.015625 214.398438 387.769531 214.398438 Z M 366.949219 185.132812 C 366.933594 185.132812 366.917969 185.132812 366.90625 185.132812 C 366.171875 185.132812 365.5625 185.714844 365.539062 186.453125 L 364.597656 215.730469 C 364.574219 216.484375 365.164062 217.117188 365.921875 217.140625 C 365.933594 217.140625 365.949219 217.140625 365.964844 217.140625 C 366.695312 217.140625 367.304688 216.558594 367.328125 215.820312 L 368.269531 186.542969 C 368.292969 185.789062 367.703125 185.15625 366.949219 185.132812 Z M 387.65625 237.046875 C 386.902344 237.128906 386.359375 237.796875 386.4375 238.550781 L 388.324219 256.492188 C 388.394531 257.195312 388.988281 257.71875 389.679688 257.71875 C 389.726562 257.71875 389.773438 257.714844 389.824219 257.710938 C 390.574219 257.628906 391.121094 256.960938 391.039062 256.207031 L 389.15625 238.265625 C 389.078125 237.511719 388.378906 236.972656 387.65625 237.046875 Z M 337.292969 212.453125 L 337.292969 221.898438 C 337.292969 222.652344 337.90625 223.261719 338.660156 223.261719 C 339.417969 223.261719 340.027344 222.652344 340.027344 221.898438 L 340.027344 212.453125 C 340.027344 211.699219 339.417969 211.085938 338.660156 211.085938 C 337.90625 211.085938 337.292969 211.699219 337.292969 212.453125 Z M 334.464844 255.679688 L 334.464844 274.570312 C 334.464844 275.324219 335.074219 275.933594 335.828125 275.933594 C 336.585938 275.933594 337.195312 275.324219 337.195312 274.570312 L 337.195312 255.679688 C 337.195312 254.925781 336.585938 254.3125 335.828125 254.3125 C 335.074219 254.3125 334.464844 254.925781 334.464844 255.679688 Z M 355.238281 310.332031 L 355.238281 335.828125 C 355.238281 336.585938 355.851562 337.195312 356.605469 337.195312 C 357.359375 337.195312 357.972656 336.585938 357.972656 335.828125 L 357.972656 310.332031 C 357.972656 309.578125 357.359375 308.964844 356.605469 308.964844 C 355.851562 308.964844 355.238281 309.578125 355.238281 310.332031 Z M 412.84375 353.601562 C 412.898438 352.847656 412.332031 352.195312 411.578125 352.140625 C 410.855469 352.082031 410.171875 352.648438 410.117188 353.402344 C 409.585938 360.722656 409.742188 368.128906 410.585938 375.414062 C 410.664062 376.113281 411.257812 376.625 411.941406 376.625 C 411.992188 376.625 412.046875 376.625 412.101562 376.617188 C 412.847656 376.53125 413.386719 375.851562 413.300781 375.105469 C 412.480469 367.984375 412.324219 360.75 412.84375 353.601562 Z M 385.675781 361.714844 C 384.921875 361.777344 384.367188 362.4375 384.429688 363.191406 L 385.390625 374.523438 C 385.449219 375.234375 386.046875 375.773438 386.75 375.773438 C 386.789062 375.773438 386.828125 375.769531 386.867188 375.765625 C 387.617188 375.703125 388.175781 375.042969 388.113281 374.289062 L 387.152344 362.957031 C 387.089844 362.203125 386.34375 361.628906 385.675781 361.714844 Z M 364.160156 335.589844 C 363.40625 335.589844 362.796875 336.203125 362.796875 336.957031 L 362.796875 346.402344 C 362.796875 347.15625 363.40625 347.765625 364.160156 347.765625 C 364.917969 347.765625 365.527344 347.15625 365.527344 346.402344 L 365.527344 336.957031 C 365.527344 336.203125 364.917969 335.589844 364.160156 335.589844 Z M 345.25 372.378906 C 344.378906 372.289062 343.867188 372.945312 343.839844 373.699219 L 342.894531 402.976562 C 342.871094 403.730469 343.464844 404.359375 344.214844 404.382812 C 344.230469 404.386719 344.25 404.386719 344.261719 404.386719 C 344.996094 404.386719 345.605469 403.800781 345.628906 403.0625 L 346.574219 373.785156 C 346.597656 373.03125 346.003906 372.402344 345.25 372.378906 Z M 345.25 372.378906 " fill-opacity="1" fill-rule="nonzero"/></g><g mask="url(#78ab905aab)"><g transform="matrix(1, 0, 0, 1, 65, 12)"><g clip-path="url(#a69730f982)"><path fill="#5c799a" d="M 229.523438 24.160156 C 228.570312 18.410156 231.035156 12.398438 235.230469 8.355469 C 237.085938 6.566406 239.253906 5.15625 241.582031 4.058594 L 241.53125 4.074219 C 241.621094 4.03125 241.714844 3.996094 241.804688 3.953125 C 242.175781 3.777344 242.550781 3.621094 242.929688 3.460938 C 253.527344 -1.015625 265.496094 1.074219 272.191406 9.6875 C 278.359375 17.625 278.441406 28.742188 283.230469 37.578125 C 285.542969 41.839844 289.0625 46.039062 288.453125 50.851562 C 287.988281 54.511719 285.054688 57.519531 281.652344 58.941406 C 278.246094 60.363281 274.425781 60.429688 270.75 60.113281 C 264.492188 59.570312 257.621094 57.445312 254.675781 51.894531 C 253.289062 49.277344 252.976562 46.242188 252.179688 43.386719 C 251.382812 40.53125 249.839844 37.585938 247.085938 36.484375 C 245.175781 35.722656 243.03125 35.988281 240.992188 35.742188 C 235.207031 35.042969 230.480469 29.90625 229.523438 24.160156 Z M 408.378906 127.292969 C 407.945312 120.085938 400.863281 113.660156 393.742188 114.84375 C 392.101562 107.265625 389.925781 98.882812 383.363281 94.746094 C 379.308594 92.195312 374.203125 91.785156 369.484375 92.585938 C 364.761719 93.386719 360.3125 95.300781 355.890625 97.140625 C 354.914062 97.546875 353.789062 97.949219 352.835938 97.484375 C 352.390625 97.269531 352.082031 96.90625 351.851562 96.476562 C 354.382812 94.164062 357.542969 92.128906 361.308594 91.316406 C 362.042969 91.160156 362.515625 90.429688 362.355469 89.695312 C 362.269531 89.296875 362.007812 88.988281 361.679688 88.804688 C 361.597656 88.757812 361.511719 88.730469 361.425781 88.703125 C 361.203125 88.628906 360.972656 88.59375 360.730469 88.648438 C 356.992188 89.453125 353.8125 91.285156 351.179688 93.445312 C 350.191406 83.515625 354.046875 73.28125 351.597656 63.589844 C 350.285156 58.394531 341.207031 47.023438 336.011719 55.25 C 334.398438 57.800781 334.390625 61.007812 333.679688 63.941406 C 332.664062 68.132812 330.085938 71.925781 326.566406 74.414062 C 323.246094 76.757812 319.152344 77.96875 316.175781 80.734375 C 313.199219 83.496094 311.980469 88.9375 315.242188 91.359375 C 316.679688 92.429688 318.8125 92.796875 319.519531 94.445312 C 320.003906 95.578125 319.578125 96.882812 319.070312 98.007812 C 317.042969 102.484375 313.585938 107.339844 315.644531 111.800781 C 317.9375 116.761719 325.089844 116.851562 329.695312 119.640625 C 322.863281 123.550781 318.730469 132.125 320.550781 139.871094 C 320.695312 140.5 321.257812 140.925781 321.878906 140.925781 C 321.980469 140.925781 322.085938 140.914062 322.191406 140.890625 C 322.925781 140.71875 323.382812 139.980469 323.207031 139.246094 C 321.574219 132.296875 325.574219 124.566406 331.964844 121.53125 C 332.210938 121.824219 332.441406 122.140625 332.644531 122.484375 C 335.554688 127.410156 331.601562 134.355469 334.617188 139.214844 C 336.09375 141.601562 338.960938 142.824219 341.757812 143.082031 C 344.550781 143.34375 347.347656 142.792969 350.125 142.394531 C 357.8125 141.285156 365.664062 141.320312 373.34375 142.496094 C 381.074219 143.675781 389.097656 145.992188 396.53125 143.570312 C 403.398438 141.335938 408.808594 134.5 408.378906 127.292969 Z M 445.355469 145.914062 C 443.507812 139.792969 447.527344 128.414062 437.957031 126.902344 C 434.949219 126.429688 432.007812 128.0625 431.203125 131.128906 C 430.007812 135.664062 435.273438 136.023438 434.972656 140.113281 C 434.78125 142.769531 433.515625 145.230469 433.0625 147.851562 C 432.609375 150.476562 433.335938 153.691406 435.792969 154.714844 C 436.53125 155.019531 437.34375 155.089844 438.144531 155.105469 C 440.007812 155.140625 441.878906 154.894531 443.667969 154.375 C 444.5625 154.113281 445.480469 153.757812 446.078125 153.042969 C 446.886719 152.082031 446.929688 150.675781 446.625 149.457031 C 446.320312 148.238281 445.71875 147.113281 445.355469 145.914062 Z M 144.570312 94.746094 C 145.726562 95.523438 147.15625 95.742188 148.535156 95.945312 C 155.394531 96.941406 162.902344 97.820312 168.820312 94.210938 C 169.511719 93.789062 170.195312 93.28125 170.574219 92.558594 C 171 91.742188 170.96875 90.761719 170.804688 89.855469 C 170.304688 87.117188 168.605469 84.621094 166.238281 83.148438 C 164.410156 82.011719 162.015625 81.242188 161.328125 79.203125 C 161.035156 78.347656 161.121094 77.410156 160.882812 76.539062 C 159.648438 71.96875 152.582031 72.671875 149.667969 74.988281 C 146.425781 77.5625 143.378906 82.746094 142.453125 86.671875 C 141.773438 89.554688 142.109375 93.09375 144.570312 94.746094 Z M 101.164062 88.535156 C 98.464844 80.660156 101.183594 71.589844 94.886719 65.03125 C 90.402344 60.359375 81.464844 57.65625 75.054688 57.992188 C 54.578125 59.066406 71.902344 81.589844 65.300781 91.417969 C 62.625 95.40625 56.566406 97.261719 56.054688 102.039062 C 55.578125 106.457031 60.480469 110.121094 60 114.539062 C 59.652344 117.734375 56.644531 119.898438 53.808594 121.410156 C 39.722656 128.921875 23.046875 130.929688 9.601562 139.535156 C 6.625 141.441406 3.726562 143.796875 2.351562 147.054688 C 0.976562 150.316406 1.609375 154.644531 4.578125 156.566406 C 7.710938 158.59375 11.804688 157.296875 15.433594 156.433594 C 38.566406 150.929688 64.027344 165.980469 85.960938 156.796875 C 87.054688 156.339844 88.164062 155.792969 88.882812 154.855469 C 90.847656 152.289062 88.949219 148.496094 89.851562 145.394531 C 90.613281 142.78125 93.167969 141.1875 95.503906 139.789062 C 100.9375 136.535156 106.335938 132.953125 110.242188 127.964844 C 114.144531 122.976562 116.382812 116.308594 114.730469 110.195312 C 112.488281 101.914062 103.949219 96.652344 101.164062 88.535156 Z M 101.164062 88.535156 " fill-opacity="1" fill-rule="nonzero"/></g></g></g></g></g></svg>